<svg width="31" height="30" viewBox="0 0 31 30" fill="none" xmlns="http://www.w3.org/2000/svg">
<rect width="6.2" height="30" fill="url(#paint0_linear)"/>
<path d="M20.3222 10.9437C18.7999 9.11476 16.7548 7.80396 14.4661 7.19006C12.1773 6.57616 9.75645 6.68911 7.53378 7.51351C5.3111 8.33786 3.39486 9.83351 2.04663 11.7964C0.698352 13.7592 -0.0162848 16.0936 0.000281643 18.481L6.19934 18.4373C6.19175 17.3361 6.52134 16.2593 7.14328 15.3539C7.76521 14.4485 8.64908 13.7586 9.67437 13.3784C10.6996 12.9981 11.8163 12.946 12.872 13.2292C13.9278 13.5123 14.8711 14.117 15.5733 14.9606L20.3222 10.9437Z" fill="#2463FF"/>
<rect x="31" y="30" width="6.2" height="30" transform="rotate(-180 31 30)" fill="url(#paint1_linear)"/>
<path d="M10.6777 19.0564C12.2001 20.8853 14.2452 22.1961 16.5339 22.81C18.8226 23.4239 21.2435 23.3109 23.4661 22.4865C25.6888 21.6622 27.6051 20.1665 28.9533 18.2037C30.3016 16.2408 31.0162 13.9064 30.9996 11.519L24.8006 11.5627C24.8082 12.6639 24.4786 13.7407 23.8566 14.6461C23.2347 15.5515 22.3508 16.2414 21.3256 16.6217C20.3003 17.0019 19.1836 17.054 18.1279 16.7709C17.0722 16.4877 16.1288 15.883 15.4266 15.0394L10.6777 19.0564Z" fill="#2463FF"/>
<defs>
<linearGradient id="paint0_linear" x1="0" y1="0" x2="0" y2="30" gradientUnits="userSpaceOnUse">
<stop offset="0.609275" stop-color="#65A4FF"/>
<stop offset="0.609375" stop-color="#2463FF"/>
</linearGradient>
<linearGradient id="paint1_linear" x1="31" y1="30" x2="31" y2="60" gradientUnits="userSpaceOnUse">
<stop offset="0.609275" stop-color="#65A4FF"/>
<stop offset="0.609375" stop-color="#2463FF"/>
</linearGradient>
</defs>
</svg>
